<?xml version="1.0" encoding="utf-8"?>
<!-- Generator: Adobe Illustrator 17.1.0, SVG Export Plug-In . SVG Version: 6.00 Build 0)  -->
<!DOCTYPE svg PUBLIC "-//W3C//DTD SVG 1.1//EN" "http://www.w3.org/Graphics/SVG/1.1/DTD/svg11.dtd">
<svg version="1.1" id="Arcnt_x5F_Logo_x5F_RGB" xmlns="http://www.w3.org/2000/svg" xmlns:xlink="http://www.w3.org/1999/xlink"
	 x="0px" y="0px" viewBox="0 0 770.1 180" enable-background="new 0 0 770.1 180" xml:space="preserve">
<path fill="#F58025" d="M209.2,70.5h2v15.8c1.4-3.7,8.6-17.4,29.6-17.4c5.6,0,9,1.3,9.5,1.5v19.1c-1.5-0.7-7.6-3.2-14.9-3.2
	c-14.5,0-24.1,8.9-24.1,26.3v39.1c0,10.5-0.4,19.4,8.7,24.1v1.3h-38.1v-1.3c9.7-5.2,8.7-13.6,8.7-24.1V97.1
	c0-10.5,0.8-16.9-8.4-20.4v-1.3L209.2,70.5z M78.7,30.3L93.3,0l58.5,143c5.4,13.4,10.1,26.2,23,32.8v1.3h-50.3v-1.3
	c5.3-1.9,8.3-3.6,8.3-7.6c0-3.7-1.9-8.2-4.9-16L78.7,30.3z M51.2,132.6C66.2,95.2,91,95.4,97,94.8c-1.2-0.4-6.9-1.9-14.8-1.9
	c-30,0-42,17.1-53.5,41.2c-2.2,4.5-6.7,13.8-6.7,13.8c-5.6,12.2-9.7,22.4-22,27.9v1.3h46.7v-1.2c-5.7-1.3-8.3-4.2-8.3-8
	c0-3.4,1.7-7.7,4-13.3L51.2,132.6z M280.9,43.1c-8.2,0-14.3-6.4-14.3-14.6c0-7.7,7.1-13,14.3-13c7.5,0,13.2,6.4,13.2,13.7
	C294.1,36.5,288.4,43.1,280.9,43.1z M291.3,151.7c0,10.5-0.4,19.4,8.7,24.1v1.3h-38.1v-1.3c9.7-5.2,8.7-13.6,8.7-24.1V97.1
	c0-10.5,0.8-16.9-8.4-20.4v-1.3l27.2-4.9h2V151.7z M408.9,95.6c-5.1-5-14.3-11.8-29.6-11.8c-25.3,0-40.7,17.5-40.7,40.7
	c0,23.9,15.9,40.8,40.7,40.8c16.8,0,26.8-9.1,28.6-11.2h1.4l-4.2,21.7c-4.7,1.5-17,4.3-27.4,4.3c-36.8,0-61.4-22.8-61.4-55.5
	c0-35,27-55.5,61.4-55.5c8,0,20.9,1.9,29.2,4.6L408.9,95.6z M701.4,142.2c0,13.4,5.3,22.7,21.7,22.7c4.3,0,7-1.8,7.9-2.3h1.2
	l-11,16.7c-1.3,0.2-4,0.7-8.4,0.7c-21.6,0-32.2-14.4-32.2-37.7c0,0,0-36.6,0-50.3c0-11.5-9.3-15.3-15.5-15.3v-1.3l35-29.2h1.3V73
	H721c9.2,0,12-1.8,13.1-2.4h1.5L726,89.4h-24.6V142.2z M501.1,107.6c-2-13.9-10.9-23.9-27.2-23.9c-13.9,0-25,10.3-27.2,23.9H501.1z
	 M445.8,120.9c0,27.4,13.9,44.4,39.2,44.4c18.5,0,28.8-9.6,31.5-12.4h1.4l-5.8,21.5c-3.9,1.5-13.2,5.7-29.9,5.7
	c-35.4,0-58.6-23.7-58.6-55.4c0-31.7,19.9-55.5,52.1-55.5c28.3,0,47.7,22.4,46.9,51.8L445.8,120.9z M570.9,151.7
	c0,10.5-0.4,19.4,8.7,24.1v1.3h-38.1v-1.3c9.7-5.2,8.7-13.6,8.7-24.1V97.1c0-10.5,0.8-16.9-8.4-20.4v-1.3l27.2-4.9h2V151.7z
	 M575.5,88c2.2-1.8,10.6-6.8,21.1-6.8c20.6,0,30.1,15.8,30.1,37.3v33.5c0,10.3,0.3,18.7-8.7,23.9v1.3h38.1v-1.3
	c-9.4-5.3-8.7-13.3-8.7-23.9v-38.2c0-26.2-15.1-44.1-39.9-44.1C588.9,69.5,578,84.1,575.5,88z"/>
<g>
	<path fill="#F58025" d="M766.4,88.9c-2.5,2.5-5.4,3.7-8.9,3.7c-3.5,0-6.5-1.2-8.9-3.7c-2.4-2.5-3.7-5.4-3.7-8.9
		c0-3.5,1.2-6.4,3.7-8.9c2.4-2.4,5.4-3.7,8.9-3.7c3.5,0,6.5,1.2,8.9,3.7c2.5,2.4,3.7,5.4,3.7,8.9C770.1,83.4,768.9,86.4,766.4,88.9z
		 M749.8,72.3c-2.1,2.1-3.2,4.7-3.2,7.7c0,3,1,5.6,3.1,7.7c2.1,2.1,4.7,3.2,7.7,3.2c3,0,5.6-1.1,7.7-3.2c2.1-2.1,3.2-4.7,3.2-7.7
		c0-3-1.1-5.6-3.2-7.7c-2.1-2.1-4.7-3.2-7.7-3.2C754.5,69.1,751.9,70.1,749.8,72.3z M757.2,73c1.7,0,3,0.2,3.8,0.5
		c1.4,0.6,2.1,1.8,2.1,3.5c0,1.2-0.4,2.1-1.4,2.7c-0.5,0.3-1.1,0.5-2,0.7c1.1,0.2,1.9,0.6,2.4,1.4c0.5,0.7,0.8,1.4,0.8,2.1v1
		c0,0.3,0,0.7,0,1c0,0.4,0.1,0.6,0.1,0.7l0.1,0.2h-2.3c0,0,0-0.1,0-0.1c0,0,0-0.1,0-0.2l-0.1-0.4V85c0-1.6-0.4-2.6-1.3-3.2
		c-0.5-0.3-1.4-0.4-2.7-0.4h-1.9v5.4h-2.4V73H757.2z M759.9,75.2c-0.6-0.3-1.6-0.5-3-0.5h-2.1v5h2.2c1,0,1.8-0.1,2.3-0.3
		c1-0.4,1.4-1.1,1.4-2.2C760.8,76.2,760.5,75.5,759.9,75.2z"/>
</g>
</svg>
